HIERARCHY
ROOT hip
{
  OFFSET 0 0 0
  CHANNELS 6 Xposition Yposition Zposition Zrotation Yrotation Xrotation
  JOINT abdomen
  {
    OFFSET 0 20.6881 -0.73152
    CHANNELS 3 Zrotation Xrotation Yrotation
    JOINT chest
    {
      OFFSET 0 11.7043 -0.48768
      CHANNELS 3 Zrotation Xrotation Yrotation
      JOINT neck
      {
        OFFSET 0 22.1894 -2.19456
        CHANNELS 3 Zrotation Xrotation Yrotation
        JOINT head
        {
          OFFSET -0.24384 7.07133 1.2192
          CHANNELS 3 Zrotation Xrotation Yrotation
          JOINT leftEye
          {
            OFFSET 4.14528 8.04674 8.04672
            CHANNELS 3 Zrotation Xrotation Yrotation
            End Site
            {
              OFFSET 1 0 0
            }
          }
          JOINT rightEye
          {
            OFFSET -3.6576 8.04674 8.04672
            CHANNELS 3 Zrotation Xrotation Yrotation
            End Site
            {
              OFFSET 1 0 0
            }
          }
        }
      }
      JOINT rCollar
      {
        OFFSET -2.68224 19.2634 -4.8768
        CHANNELS 3 Zrotation Xrotation Yrotation
        JOINT rShldr
        {
          OFFSET -8.77824 -1.95073 1.46304
          CHANNELS 3 Zrotation Xrotation Yrotation
          JOINT rForeArm
          {
            OFFSET -28.1742 -1.7115 0.48768
            CHANNELS 3 Zrotation Xrotation Yrotation
            JOINT rHand
            {
              OFFSET -22.5879 0.773209 7.07136
              CHANNELS 3 Zrotation Xrotation Yrotation
              JOINT rThumb1
              {
                OFFSET -1.2192 -0.487915 3.41376
                CHANNELS 3 Zrotation Xrotation Yrotation
                JOINT rThumb2
                {
                  OFFSET -3.37035 -0.52449 3.41376
                  CHANNELS 3 Zrotation Xrotation Yrotation
                  End Site
                  {
                    OFFSET -1.78271 -1.18214 1.43049
                  }
                }
              }
              JOINT rIndex1
              {
                OFFSET -7.75947 0.938293 5.60832
                CHANNELS 3 Zrotation Xrotation Yrotation
                JOINT rIndex2
                {
                  OFFSET -2.54057 -0.884171 1.56538
                  CHANNELS 3 Zrotation Xrotation Yrotation
                  End Site
                  {
                    OFFSET -1.62519 -0.234802 1.16502
                  }
                }
              }
              JOINT rMid1
              {
                OFFSET -8.24714 1.18213 3.41376
                CHANNELS 3 Zrotation Xrotation Yrotation
                JOINT rMid2
                {
                  OFFSET -3.10165 -0.590103 1.0647
                  CHANNELS 3 Zrotation Xrotation Yrotation
                  End Site
                  {
                    OFFSET -2.48547 -0.328903 0.83742
                  }
                }
              }
              JOINT rRing1
              {
                OFFSET -8.82822 0.546677 1.51678
                CHANNELS 3 Zrotation Xrotation Yrotation
                JOINT rRing2
                {
                  OFFSET -2.60934 -0.819778 -0.0198488
                  CHANNELS 3 Zrotation Xrotation Yrotation
                  End Site
                  {
                    OFFSET -2.33842 -0.294052 0.168128
                  }
                }
              }
              JOINT rPinky1
              {
                OFFSET -8.27202 -0.0477905 -0.4584
                CHANNELS 3 Zrotation Xrotation Yrotation
                JOINT rPinky2
                {
                  OFFSET -1.82734 -0.647385 -0.700984
                  CHANNELS 3 Zrotation Xrotation Yrotation
                  End Site
                  {
                    OFFSET -1.69225 -0.51767 -0.607171
                  }
                }
              }
            }
          }
        }
      }
      JOINT lCollar
      {
        OFFSET 2.68224 19.2634 -4.8768
        CHANNELS 3 Zrotation Xrotation Yrotation
        JOINT lShldr
        {
          OFFSET 8.77824 -1.95073 1.46304
          CHANNELS 3 Zrotation Xrotation Yrotation
          JOINT lForeArm
          {
            OFFSET 28.1742 -1.7115 0.48768
            CHANNELS 3 Zrotation Xrotation Yrotation
            JOINT lHand
            {
              OFFSET 22.5879 0.773209 7.07136
              CHANNELS 3 Zrotation Xrotation Yrotation
              JOINT lThumb1
              {
                OFFSET 1.2192 -0.487915 3.41376
                CHANNELS 3 Zrotation Xrotation Yrotation
                JOINT lThumb2
                {
                  OFFSET 3.37035 -0.52449 3.41376
                  CHANNELS 3 Zrotation Xrotation Yrotation
                  End Site
                  {
                    OFFSET 1.78271 -1.18214 1.43049
                  }
                }
              }
              JOINT lIndex1
              {
                OFFSET 7.75947 0.938293 5.60832
                CHANNELS 3 Zrotation Xrotation Yrotation
                JOINT lIndex2
                {
                  OFFSET 2.54057 -0.884171 1.56538
                  CHANNELS 3 Zrotation Xrotation Yrotation
                  End Site
                  {
                    OFFSET 1.62519 -0.234802 1.16502
                  }
                }
              }
              JOINT lMid1
              {
                OFFSET 8.24714 1.18213 3.41376
                CHANNELS 3 Zrotation Xrotation Yrotation
                JOINT lMid2
                {
                  OFFSET 3.10165 -0.590103 1.0647
                  CHANNELS 3 Zrotation Xrotation Yrotation
                  End Site
                  {
                    OFFSET 2.48547 -0.328903 0.83742
                  }
                }
              }
              JOINT lRing1
              {
                OFFSET 8.82822 0.546677 1.51678
                CHANNELS 3 Zrotation Xrotation Yrotation
                JOINT lRing2
                {
                  OFFSET 2.60934 -0.819778 -0.0198488
                  CHANNELS 3 Zrotation Xrotation Yrotation
                  End Site
                  {
                    OFFSET 2.33842 -0.294052 0.168128
                  }
                }
              }
              JOINT lPinky1
              {
                OFFSET 8.27202 -0.0477905 -0.4584
                CHANNELS 3 Zrotation Xrotation Yrotation
                JOINT lPinky2
                {
                  OFFSET 1.82734 -0.647385 -0.700984
                  CHANNELS 3 Zrotation Xrotation Yrotation
                  End Site
                  {
                    OFFSET 1.69225 -0.51767 -0.607171
                  }
                }
              }
            }
          }
        }
      }
    }
  }
  JOINT rButtock
  {
    OFFSET -8.77824 4.35084 1.2192
    CHANNELS 3 Zrotation Xrotation Yrotation
    JOINT rThigh
    {
      OFFSET 0 -1.70687 -2.19456
      CHANNELS 3 Zrotation Xrotation Yrotation
      JOINT rShin
      {
        OFFSET 0 -36.8199 0.73152
        CHANNELS 3 Zrotation Xrotation Yrotation
        JOINT rFoot
        {
          OFFSET 0.73152 -45.1104 -5.12064
          CHANNELS 3 Zrotation Xrotation Yrotation
          End Site
          {
            OFFSET -1.1221 -3.69964 12.103
          }
        }
      }
    }
  }
  JOINT lButtock
  {
    OFFSET 8.77824 4.35084 1.2192
    CHANNELS 3 Zrotation Xrotation Yrotation
    JOINT lThigh
    {
      OFFSET 0 -1.70687 -2.19456
      CHANNELS 3 Zrotation Xrotation Yrotation
      JOINT lShin
      {
        OFFSET 0 -36.8199 0.73152
        CHANNELS 3 Zrotation Xrotation Yrotation
        JOINT lFoot
        {
          OFFSET -0.73152 -45.1104 -5.12064
          CHANNELS 3 Zrotation Xrotation Yrotation
          End Site
          {
            OFFSET 1.1221 -3.69964 12.103
          }
        }
      }
    }
  }
}
MOTION
Frames:	4
Frame Time:	0.00833333
4.20276 82.4492 5.13275 286.804 87.8363 -57.2317 -9.76682 -22.5199 -0.438473 -1.30818 -5.53527 0.655499 -1.19262 5.07045 3.55347 20.8097 0.796343 8.64908 -0.0 0.0 0.0 -0.0 0.0 0.0 3.34952e-14 -1.36517e-13 -3.19542e-14 57.1107 66.7943 -31.5838 -25.1392 -47.7748 99.4476 -0.0141434 -3.42199 -0.481492 1.22006e-10 1.07585e-10 -6.72204e-10 2.15898e-10 1.8489e-10 -1.16401e-09 1.22012e-10 1.07587e-10 -6.72221e-10 7.73091 5.47488 0.417314 1.22004e-10 1.07586e-10 -6.72197e-10 2.90554 0.965183 0.102902 1.22017e-10 1.07583e-10 -6.722e-10 10.2786 0.731801 0.0259123 1.22003e-10 1.07587e-10 -6.72189e-10 2.22167 -0.733487 -0.20892 3.34477e-14 -1.36503e-13 -3.21689e-14 -2.40944 -9.87763 -1.68847 26.8499 -25.8533 -60.6417 6.30828 -55.7115 11.8985 8.637e-10 -4.15835e-10 5.33811e-10 1.46411e-09 -6.5732e-10 9.57645e-10 8.63703e-10 -4.15828e-10 5.33818e-10 -7.73091 5.47488 -0.417314 8.63705e-10 -4.15825e-10 5.33808e-10 -2.90554 0.965183 -0.102902 8.63697e-10 -4.15825e-10 5.33807e-10 -10.2786 0.731801 -0.0259123 8.63701e-10 -4.15824e-10 5.33801e-10 -2.22167 -0.733487 0.20892 -2.03217e-16 0.0 -3.88251e-19 0.137862 -16.0689 9.70248 -0.0783488 12.5765 0.485353 -5.46825 -11.2935 -17.202 2.03217e-16 0.0 3.88251e-19 2.13074 -14.034 -22.0868 0.00214862 11.0175 -0.132689 6.26046 -14.5599 25.1291
4.16286 82.4505 5.1108 286.405 87.7926 -57.6225 -9.73511 -22.421 -0.479309 -1.21731 -5.59682 0.642074 -1.30114 5.22118 3.35594 20.7107 0.411681 8.30738 -0.0 0.0 0.0 -0.0 0.0 0.0 1.27413e-14 -4.85128e-14 -6.26172e-15 51.8176 65.8979 -27.2174 -25.0581 -47.9021 99.7387 -0.011794 -3.09911 -0.435981 1.42012e-11 -3.95502e-11 6.07772e-11 2.52767e-11 -6.97973e-11 1.05695e-10 1.42024e-11 -3.95466e-11 6.07613e-11 7.73091 5.47488 0.417314 1.41993e-11 -3.955e-11 6.07868e-11 2.90554 0.965183 0.102902 1.42074e-11 -3.95502e-11 6.07844e-11 10.2786 0.731801 0.0259123 1.41974e-11 -3.9549e-11 6.07931e-11 2.22167 -0.733487 -0.20892 1.27039e-14 -4.84945e-14 -6.4605e-15 -1.67016 -7.68146 -1.70194 27.0773 -26.5992 -61.8355 5.51463 -53.4491 10.9281 5.23526e-10 -4.31544e-10 5.91615e-11 8.9845e-10 -7.23042e-10 1.25409e-10 5.2353e-10 -4.31533e-10 5.9171e-11 -7.73091 5.47488 -0.417314 5.23531e-10 -4.31532e-10 5.91583e-11 -2.90554 0.965183 -0.102902 5.23523e-10 -4.31532e-10 5.91583e-11 -10.2786 0.731801 -0.0259123 5.23527e-10 -4.31531e-10 5.9152e-11 -2.22167 -0.733487 0.20892 -2.03217e-16 0.0 -3.88251e-19 0.15471 -16.0682 9.85368 -0.0776338 12.5718 0.485651 -5.50681 -11.2699 -17.348 2.03217e-16 0.0 3.88251e-19 2.1182 -14.0569 -22.1128 0.00211319 11.0149 -0.132917 6.21178 -14.4501 25.1282
4.12132 82.4542 5.08564 285.791 87.7526 -58.2251 -9.6509 -22.2929 -0.501848 -1.16724 -5.66135 0.627064 -1.40319 5.31561 3.14855 20.6226 0.123025 7.93324 -0.0 0.0 0.0 -0.0 0.0 0.0 -1.43983e-14 6.51003e-14 2.55403e-14 47.0365 64.9808 -23.255 -24.9849 -48.0138 99.9979 -0.0101183 -2.81155 -0.395487 -9.83723e-11 -5.34853e-10 8.87275e-10 -1.74055e-10 -9.26091e-10 1.53669e-09 -9.83723e-11 -5.3485e-10 8.87263e-10 7.73091 5.47488 0.417314 -9.83742e-11 -5.34853e-10 8.87287e-10 2.90554 0.965183 0.102902 -9.83679e-11 -5.34852e-10 8.87282e-10 10.2786 0.731801 0.0259123 -9.83769e-11 -5.34852e-10 8.8729e-10 2.22167 -0.733487 -0.20892 -1.44265e-14 6.51095e-14 2.53586e-14 -0.926635 -5.50837 -1.76778 27.2885 -27.3511 -63.0288 4.74017 -50.9142 9.95455 1.5931e-10 -5.1337e-10 -8.22699e-10 3.01716e-10 -9.03848e-10 -1.40952e-09 1.59313e-10 -5.1336e-10 -8.22688e-10 -7.73091 5.47488 -0.417314 1.59314e-10 -5.13361e-10 -8.22702e-10 -2.90554 0.965183 -0.102902 1.59307e-10 -5.13359e-10 -8.227e-10 -10.2786 0.731801 -0.0259123 1.59312e-10 -5.13358e-10 -8.22706e-10 -2.22167 -0.733487 0.20892 -2.03217e-16 0.0 -3.88251e-19 0.172577 -16.0115 9.91962 -0.0786935 12.5498 0.485008 -5.52698 -11.23 -17.4495 2.03217e-16 0.0 3.88251e-19 2.11881 -14.0279 -22.1551 0.00207709 11.0108 -0.133111 6.15807 -14.3182 25.1444
4.10342 82.4632 5.05523 284.568 87.719 -59.4933 -9.52713 -22.1363 -0.516779 -1.14396 -5.73443 0.609106 -1.49649 5.37169 2.93616 20.5288 -0.0972279 7.53828 -0.0 0.0 0.0 -0.0 0.0 0.0 -4.73025e-14 2.13151e-13 6.51175e-14 42.6573 64.0484 -19.6166 -24.9192 -48.1131 100.229 -0.0087692 -2.50641 -0.352553 -2.3586e-10 -1.25021e-09 1.8707e-09 -4.17411e-10 -2.16257e-09 3.2391e-09 -2.3586e-10 -1.25021e-09 1.8707e-09 7.73091 5.47488 0.417314 -2.35863e-10 -1.25021e-09 1.87072e-09 2.90554 0.965183 0.102902 -2.35857e-10 -1.25021e-09 1.87071e-09 10.2786 0.731801 0.0259123 -2.35866e-10 -1.25021e-09 1.87071e-09 2.22167 -0.733487 -0.20892 -4.7322e-14 2.13143e-13 6.4956e-14 -0.182478 -3.35912 -1.88203 27.4822 -28.1133 -64.2493 4.02315 -48.1515 9.01488 -2.7762e-10 -6.43651e-10 -2.03658e-09 -4.10432e-10 -1.17552e-09 -3.51973e-09 -2.7762e-10 -6.43645e-10 -2.03657e-09 -7.73091 5.47488 -0.417314 -2.7762e-10 -6.43647e-10 -2.03659e-09 -2.90554 0.965183 -0.102902 -2.77625e-10 -6.43645e-10 -2.03658e-09 -10.2786 0.731801 -0.0259123 -2.77618e-10 -6.43643e-10 -2.03659e-09 -2.22167 -0.733487 0.20892 -2.03217e-16 0.0 -3.88251e-19 0.195185 -15.9099 9.93475 -0.0808664 12.5118 0.483679 -5.53893 -11.1776 -17.5361 2.03217e-16 0.0 3.88251e-19 2.13044 -13.963 -22.2182 0.00204591 11.005 -0.133217 6.09605 -14.1599 25.1726
